<svg width="16" height="16" viewBox="0 0 16 16" fill="none" xmlns="http://www.w3.org/2000/svg">
<path fill-rule="evenodd" clip-rule="evenodd" d="M8.00001 2.66668C5.05449 2.66668 2.66668 5.05449 2.66668 8.00001C2.66668 10.9456 5.05449 13.3333 8.00001 13.3333C10.9456 13.3333 13.3333 10.9456 13.3333 8.00001C13.3333 5.05449 10.9456 2.66668 8.00001 2.66668ZM1.33334 8.00001C1.33334 4.31811 4.31811 1.33334 8.00001 1.33334C11.6819 1.33334 14.6667 4.31812 14.6667 8.00001C14.6667 11.6819 11.6819 14.6667 8.00001 14.6667C4.31812 14.6667 1.33334 11.6819 1.33334 8.00001ZM6.66668 7.33334C6.66668 6.96515 6.96515 6.66668 7.33334 6.66668H8.00001C8.3682 6.66668 8.66668 6.96515 8.66668 7.33334V10.6667C8.66668 11.0349 8.3682 11.3333 8.00001 11.3333C7.63182 11.3333 7.33334 11.0349 7.33334 10.6667V8.00001C6.96515 8.00001 6.66668 7.70153 6.66668 7.33334Z" fill="#828285"/>
<path d="M8 4.83334C7.72387 4.83334 7.5 5.0572 7.5 5.33334C7.5 5.60948 7.72387 5.83334 8 5.83334C8.27613 5.83334 8.5 5.60948 8.5 5.33334C8.5 5.0572 8.27613 4.83334 8 4.83334Z" fill="#828285"/>
<path fill-rule="evenodd" clip-rule="evenodd" d="M7.33334 5.33332C7.33334 4.96513 7.63183 4.66666 8.00001 4.66666C8.36819 4.66666 8.66668 4.96513 8.66668 5.33332C8.66668 5.70151 8.36819 5.99999 8.00001 5.99999C7.63183 5.99999 7.33334 5.70151 7.33334 5.33332ZM8.00001 4.99999C7.81592 4.99999 7.66668 5.14923 7.66668 5.33332C7.66668 5.51741 7.81592 5.66666 8.00001 5.66666C8.1841 5.66666 8.33334 5.51741 8.33334 5.33332C8.33334 5.14923 8.1841 4.99999 8.00001 4.99999Z" fill="#828285"/>
</svg>
